<svg xmlns="http://www.w3.org/2000/svg" xmlns:xlink="http://www.w3.org/1999/xlink" viewBox="0 0 72 72" width="72" height="72" preserveAspectRatio="xMidYMid meet" style="width: 100%; height: 100%; transform: translate3d(0px, 0px, 0px); content-visibility: visible;"><defs><clipPath id="__lottie_element_2251"><rect width="72" height="72" x="0" y="0"></rect></clipPath><clipPath id="__lottie_element_2253"><path d="M0,0 L31,0 L31,31 L0,31z"></path></clipPath></defs><g clip-path="url(#__lottie_element_2251)"><g clip-path="url(#__lottie_element_2253)" transform="matrix(1,0,0,1,18.875,20.5)" opacity="1" style="display: block;"><g style="display: none;"><g><path></path></g></g><g style="display: none;"><g><path></path></g></g><g transform="matrix(26,0,0,26,16.060998916625977,16.01300048828125)" opacity="1" style="display: block;"><g opacity="1" transform="matrix(0.0384100005030632,0,0,0.0384100005030632,0,0)"><path fill="rgb(255,255,255)" fill-opacity="1" d=" M-1.312999963760376,6.495999813079834 C-1.312999963760376,6.495999813079834 -1.406999945640564,5.74399995803833 -1.406999945640564,5.74399995803833 C-1.468999981880188,5.25 -1.468999981880188,4.75 -1.406999945640564,4.25600004196167 C-1.406999945640564,4.25600004196167 -1.125,2 -1.125,2 C-1.125,2 -5.5,2 -5.5,2 C-6.328000068664551,2 -7,1.3279999494552612 -7,0.5 C-7,-0.02199999988079071 -6.732999801635742,-0.48100000619888306 -6.328999996185303,-0.75 C-6.328999996185303,-0.75 -6.5,-0.75 -6.5,-0.75 C-7.328000068664551,-0.75 -8,-1.4220000505447388 -8,-2.25 C-8,-2.9800000190734863 -7.478000164031982,-3.5889999866485596 -6.7870001792907715,-3.7230000495910645 C-7.215000152587891,-3.986999988555908 -7.5,-4.460000038146973 -7.5,-5 C-7.5,-5.828000068664551 -6.828000068664551,-6.5 -6,-6.5 C-6,-6.5 -5.618000030517578,-6.5 -5.618000030517578,-6.5 C-5.855999946594238,-6.764999866485596 -6,-7.116000175476074 -6,-7.5 C-6,-8.32800006866455 -5.328000068664551,-9 -4.5,-9 C-4.5,-9 -0.01600000075995922,-9 -0.01600000075995922,-9 C1.3049999475479126,-9 2.6029999256134033,-8.654999732971191 3.75,-8 C3.75,-8 3.9230000972747803,-7.901000022888184 3.9230000972747803,-7.901000022888184 C4.955999851226807,-7.310999870300293 6.125999927520752,-7 7.315999984741211,-7 C7.693999767303467,-7 8,-6.693999767303467 8,-6.315999984741211 C8,-6.315999984741211 8,-0.7540000081062317 8,-0.7540000081062317 C8,-0.30799999833106995 7.703999996185303,0.08399999886751175 7.275000095367432,0.2070000022649765 C7.275000095367432,0.2070000022649765 5.238999843597412,0.7889999747276306 5.238999843597412,0.7889999747276306 C4.763000011444092,0.925000011920929 4.355000019073486,1.2319999933242798 4.0929999351501465,1.6519999504089355 C4.0929999351501465,1.6519999504089355 2.1519999504089355,4.756999969482422 2.1519999504089355,4.756999969482422 C2.052999973297119,4.915999889373779 2,5.099999904632568 2,5.2870001792907715 C2,5.2870001792907715 2,8.52400016784668 2,8.52400016784668 C2,8.786999702453613 1.7869999408721924,9 1.5240000486373901,9 C0.0820000022649765,9 -1.1339999437332153,7.927000045776367 -1.312999963760376,6.495999813079834z"></path></g></g></g></g></svg>