<svg version="1.1" xmlns="http://www.w3.org/2000/svg" xmlns:xlink="http://www.w3.org/1999/xlink" width="24" height="24" viewBox="0,0,256,256"><g fill="#ffffff" fill-rule="evenodd" stroke="none" stroke-width="1" stroke-linecap="butt" stroke-linejoin="miter" stroke-miterlimit="10" stroke-dasharray="" stroke-dashoffset="0" font-family="none" font-weight="none" font-size="none" text-anchor="none" style="mix-blend-mode: normal"><g transform="scale(10.66667,10.66667)"><path d="M13,4.07c3.44468,0.4972 6.00089,3.44962 6,6.93v4.25c1.05333,0.08 2.08667,0.17333 3.1,0.28l-0.2,2c-6.5812,-0.70458 -13.2188,-0.70458 -19.8,0l-0.2,-2c1.01333,-0.1 2.04667,-0.19333 3.1,-0.28v-4.25c-0.00089,-3.48038 2.55532,-6.4328 6,-6.93v-2.07h2zM17,15.13v-4.13c0,-2.76142 -2.23858,-5 -5,-5c-2.76142,0 -5,2.23858 -5,5v4.13c3.33112,-0.17194 6.66888,-0.17194 10,0M8.63,19.37c0.03,1.15 1.52,2.63 3.37,2.63c1.85,0 3.34,-1.48 3.37,-2.63c0.01,-0.22 -0.2,-0.37 -0.42,-0.37h-5.9c-0.23,0 -0.43,0.15 -0.42,0.37"></path></g></g></svg>