<svg version="1.1" xmlns="http://www.w3.org/2000/svg" xmlns:xlink="http://www.w3.org/1999/xlink" width="24" height="24" viewBox="0,0,256,256"><g fill="#ffffff" fill-rule="evenodd" stroke="none" stroke-width="1" stroke-linecap="butt" stroke-linejoin="miter" stroke-miterlimit="10" stroke-dasharray="" stroke-dashoffset="0" font-family="none" font-weight="none" font-size="none" text-anchor="none" style="mix-blend-mode: normal"><g transform="translate(1.54565,1.54565) scale(10.66667,10.66667)"><path d="M17,10c0,3.86599 -3.13401,7 -7,7c-3.86599,0 -7,-3.13401 -7,-7c0,-3.86599 3.13401,-7 7,-7c3.86599,0 7,3.13401 7,7M15.62,17.03c-3.73093,2.9826 -9.14201,2.53105 -12.327,-1.02867c-3.18498,-3.55973 -3.03431,-8.98752 0.34324,-12.36508c3.37756,-3.37756 8.80535,-3.52823 12.36508,-0.34324c3.55973,3.18498 4.01127,8.59606 1.02867,12.327l5.68,5.67l-1.42,1.42z"></path></g></g></svg>