<svg xmlns="http://www.w3.org/2000/svg" xmlns:xlink="http://www.w3.org/1999/xlink" viewBox="0 0 72 72" width="72" height="72" preserveAspectRatio="xMidYMid meet" style="width: 100%; height: 100%; transform: translate3d(0px, 0px, 0px); content-visibility: visible;"><defs><clipPath id="__lottie_element_2472"><rect width="72" height="72" x="0" y="0"></rect></clipPath><clipPath id="__lottie_element_2474"><path d="M0,0 L410,0 L410,410 L0,410z"></path></clipPath><g id="__lottie_element_2498"><g transform="matrix(1,0,0,1,31.5,37.03200149536133)" opacity="1" style="display: block;"><g opacity="1" transform="matrix(1,0,0,1,0,0)"><path fill="rgb(63,84,255)" fill-opacity="1" d=" M7.400000095367432,5.539999961853027 C7.388999938964844,5.567999839782715 7.376999855041504,5.59499979019165 7.364999771118164,5.622000217437744 M-7.275000095367432,-0.2070000022649765 C-7.275000095367432,-0.2070000022649765 -7.823999881744385,-2.130000114440918 -7.823999881744385,-2.130000114440918 M-3.75,8 C-3.75,8 -4.742000102996826,9.736000061035156 -4.742000102996826,9.736000061035156 M-4.742000102996826,9.736000061035156 C-4.742000102996826,9.736000061035156 -4.914999961853027,9.637999534606934 -4.914999961853027,9.637999534606934 C-5.645999908447266,9.220000267028809 -6.473999977111816,9 -7.315999984741211,9 C-8.79800033569336,9 -10,7.797999858856201 -10,6.315999984741211 C-10,6.315999984741211 -10,0.7540000081062317 -10,0.7540000081062317 C-10,-0.5849999785423279 -9.112000465393066,-1.7619999647140503 -7.823999881744385,-2.130000114440918 C-7.823999881744385,-2.130000114440918 -5.789000034332275,-2.7119998931884766 -5.789000034332275,-2.7119998931884766 C-5.789000034332275,-2.7119998931884766 -4,-5.573999881744385 -4,-5.573999881744385 C-4,-5.573999881744385 -4,-8.52400016784668 -4,-8.52400016784668 C-4,-9.892000198364258 -2.8919999599456787,-11 -1.5240000486373901,-11 C0.9259999990463257,-11 2.99399995803833,-9.175000190734863 3.2980000972747803,-6.74399995803833 C3.2980000972747803,-6.74399995803833 3.375999927520752,-6.116000175476074 3.375999927520752,-6.116000175476074 C3.4639999866485596,-5.413000106811523 3.4579999446868896,-4.701000213623047 3.3589999675750732,-4 C3.3589999675750732,-4 5.5,-4 5.5,-4 C7.433000087738037,-4 9,-2.433000087738037 9,-0.5 C9,-0.40299999713897705 8.996000289916992,-0.3059999942779541 8.98799991607666,-0.210999995470047 C9.61400032043457,0.42100000381469727 10,1.2899999618530273 10,2.25 C10,2.9719998836517334 9.781999588012695,3.6419999599456787 9.407999992370605,4.198999881744385 C9.468000411987305,4.455999851226807 9.5,4.723999977111816 9.5,5 C9.5,6.198999881744385 8.89799976348877,7.25600004196167 7.979000091552734,7.88700008392334 C7.785999774932861,9.637999534606934 6.302000045776367,11 4.5,11 C4.5,11 0.01600000075995922,11 0.01600000075995922,11 C-1.652999997138977,11 -3.2929999828338623,10.564000129699707 -4.742000102996826,9.736000061035156z"></path></g></g></g><filter id="__lottie_element_2504" filterUnits="objectBoundingBox" x="0%" y="0%" width="100%" height="100%"><feComponentTransfer in="SourceGraphic"><feFuncA type="table" tableValues="1.0 0.0"></feFuncA></feComponentTransfer></filter><mask id="__lottie_element_2498_2" mask-type="alpha"><g filter="url(#__lottie_element_2504)"><rect width="72" height="72" x="0" y="0" fill="#ffffff" opacity="0"></rect><use xlink:href="#__lottie_element_2498"></use></g></mask><g id="__lottie_element_2508"><g style="display: block;" transform="matrix(0.6000000238418579,0,0,0.6000000238418579,32.3120002746582,37.56879806518555)" opacity="1"><g opacity="1" transform="matrix(1,0,0,1,0,0)"><path fill="rgb(63,84,255)" fill-opacity="1" d=" M-2.75,-12 C-2.75,-12 -1.4119999408721924,-12 -1.4119999408721924,-12 C1.121000051498413,-12 3.6019999980926514,-10.359000205993652 4.250999927520752,-7.60699987411499 C4.423999786376953,-6.870999813079834 4.614999771118164,-5.929999828338623 4.702000141143799,-4.98199987411499 C7.426000118255615,-4.760000228881836 9.588000297546387,-2.553999900817871 9.741000175476074,0.1889999955892563 C10.067000389099121,0.8930000066757202 10.25,1.6770000457763672 10.25,2.5 C10.25,3.3239998817443848 10.067000389099121,4.10699987411499 9.741000175476074,4.810999870300293 C9.675999641418457,5.9770002365112305 9.246999740600586,7.046000003814697 8.569000244140625,7.90500020980835 C7.947999954223633,10.26200008392334 5.802000045776367,12 3.25,12 C3.25,12 -0.34599998593330383,12 -0.34599998593330383,12 C-2.007999897003174,12 -3.6540000438690186,11.661999702453613 -5.182000160217285,11.006999969482422 C-5.182000160217285,11.006999969482422 -6.005000114440918,10.654999732971191 -6.005000114440918,10.654999732971191 C-6.243000030517578,10.553000450134277 -6.5,10.5 -6.758999824523926,10.5 C-8.687000274658203,10.5 -10.25,8.937000274658203 -10.25,7.008999824523926 C-10.25,7.008999824523926 -10.25,1.6180000305175781 -10.25,1.6180000305175781 C-10.25,0.10300000011920929 -9.394000053405762,-1.281999945640564 -8.038999557495117,-1.9600000381469727 C-8.038999557495117,-1.9600000381469727 -7.486000061035156,-2.2360000610351562 -7.486000061035156,-2.2360000610351562 C-7.486000061035156,-2.2360000610351562 -6.25,-4.708000183105469 -6.25,-4.708000183105469 C-6.25,-4.708000183105469 -6.25,-8.5 -6.25,-8.5 C-6.25,-10.432999610900879 -4.683000087738037,-12 -2.75,-12z"></path></g></g></g><filter id="__lottie_element_2514" filterUnits="objectBoundingBox" x="0%" y="0%" width="100%" height="100%"><feComponentTransfer in="SourceGraphic"><feFuncA type="table" tableValues="1.0 0.0"></feFuncA></feComponentTransfer></filter><mask id="__lottie_element_2508_2" mask-type="alpha"><g filter="url(#__lottie_element_2514)"><rect width="72" height="72" x="0" y="0" fill="#ffffff" opacity="0"></rect><use xlink:href="#__lottie_element_2508"></use></g></mask><g id="__lottie_element_2518"><g transform="matrix(1,0,0,1,32.08056640625,36.535987854003906)" opacity="1" style="display: none;"><g opacity="1" transform="matrix(1,0,0,1,0,0)"><path fill="rgb(63,84,255)" fill-opacity="1" d=" M-2.75,-12 C-2.75,-12 -1.4119999408721924,-12 -1.4119999408721924,-12 C1.121000051498413,-12 3.6019999980926514,-10.359000205993652 4.250999927520752,-7.60699987411499 C4.423999786376953,-6.870999813079834 4.614999771118164,-5.929999828338623 4.702000141143799,-4.98199987411499 C7.426000118255615,-4.760000228881836 9.588000297546387,-2.553999900817871 9.741000175476074,0.1889999955892563 C10.067000389099121,0.8930000066757202 10.25,1.6770000457763672 10.25,2.5 C10.25,3.3239998817443848 10.067000389099121,4.10699987411499 9.741000175476074,4.810999870300293 C9.675999641418457,5.9770002365112305 9.246999740600586,7.046000003814697 8.569000244140625,7.90500020980835 C7.947999954223633,10.26200008392334 5.802000045776367,12 3.25,12 C3.25,12 -0.34599998593330383,12 -0.34599998593330383,12 C-2.007999897003174,12 -3.6540000438690186,11.661999702453613 -5.182000160217285,11.006999969482422 C-5.182000160217285,11.006999969482422 -6.005000114440918,10.654999732971191 -6.005000114440918,10.654999732971191 C-6.243000030517578,10.553000450134277 -6.5,10.5 -6.758999824523926,10.5 C-8.687000274658203,10.5 -10.25,8.937000274658203 -10.25,7.008999824523926 C-10.25,7.008999824523926 -10.25,1.6180000305175781 -10.25,1.6180000305175781 C-10.25,0.10300000011920929 -9.394000053405762,-1.281999945640564 -8.038999557495117,-1.9600000381469727 C-8.038999557495117,-1.9600000381469727 -7.486000061035156,-2.2360000610351562 -7.486000061035156,-2.2360000610351562 C-7.486000061035156,-2.2360000610351562 -6.25,-4.708000183105469 -6.25,-4.708000183105469 C-6.25,-4.708000183105469 -6.25,-8.5 -6.25,-8.5 C-6.25,-10.432999610900879 -4.683000087738037,-12 -2.75,-12z"></path></g></g></g><filter id="__lottie_element_2524" filterUnits="objectBoundingBox" x="0%" y="0%" width="100%" height="100%"><feComponentTransfer in="SourceGraphic"><feFuncA type="table" tableValues="1.0 0.0"></feFuncA></feComponentTransfer></filter><mask id="__lottie_element_2518_2" mask-type="alpha"><g filter="url(#__lottie_element_2524)"><rect width="72" height="72" x="0" y="0" fill="#ffffff" opacity="0"></rect><use xlink:href="#__lottie_element_2518"></use></g></mask><g id="__lottie_element_2528"><g style="display: none;"><g><path></path></g></g></g><filter id="__lottie_element_2534" filterUnits="objectBoundingBox" x="0%" y="0%" width="100%" height="100%"><feComponentTransfer in="SourceGraphic"><feFuncA type="table" tableValues="1.0 0.0"></feFuncA></feComponentTransfer></filter><mask id="__lottie_element_2528_2" mask-type="alpha"><g filter="url(#__lottie_element_2534)"><rect width="72" height="72" x="0" y="0" fill="#ffffff" opacity="0"></rect><use xlink:href="#__lottie_element_2528"></use></g></mask></defs><g clip-path="url(#__lottie_element_2472)"><g mask="url(#__lottie_element_2528_2)" style="display: none;"><g><g><path stroke-linecap="butt" stroke-linejoin="miter" fill-opacity="0" stroke-miterlimit="4"></path></g></g></g><g style="display: none;"><g><path stroke-linecap="butt" stroke-linejoin="miter" fill-opacity="0" stroke-miterlimit="4"></path></g></g><g mask="url(#__lottie_element_2518_2)" style="display: none;"><g transform="matrix(1,0,0,1,41.01456069946289,41.654659271240234)" opacity="0.12488000001386013"><g opacity="1" transform="matrix(1,0,0,1,0,0)"><path stroke-linecap="butt" stroke-linejoin="miter" fill-opacity="0" stroke-miterlimit="4" stroke="rgb(255,255,255)" stroke-opacity="1" stroke-width="2" d=" M-2.75,-9 C-2.75,-9 -1.4119999408721924,-9 -1.4119999408721924,-9 C-0.12099999934434891,-9 1.034999966621399,-8.175000190734863 1.3309999704360962,-6.918000221252441 C1.5509999990463257,-5.982999801635742 1.75,-4.892000198364258 1.75,-4 C1.75,-3.305000066757202 1.628999948501587,-2.6110000610351562 1.472000002861023,-2 C1.472000002861023,-2 4.25,-2 4.25,-2 C5.63100004196167,-2 6.75,-0.8809999823570251 6.75,0.5 C6.75,0.652999997138977 6.736000061035156,0.8029999732971191 6.710000038146973,0.9480000138282776 C7.047999858856201,1.3739999532699585 7.25,1.9140000343322754 7.25,2.5 C7.25,3.0859999656677246 7.047999858856201,3.625999927520752 6.710000038146973,4.052000045776367 C6.736000061035156,4.197000026702881 6.75,4.3470001220703125 6.75,4.5 C6.75,5.317999839782715 6.35699987411499,6.044000148773193 5.75,6.5 C5.75,7.88100004196167 4.63100004196167,9 3.25,9 C3.25,9 -0.34599998593330383,9 -0.34599998593330383,9 C-1.6019999980926514,9 -2.8450000286102295,8.744999885559082 -4,8.25 C-4,8.25 -4.822999954223633,7.896999835968018 -4.822999954223633,7.896999835968018 C-5.434999942779541,7.635000228881836 -6.093999862670898,7.5 -6.758999824523926,7.5 C-7.03000020980835,7.5 -7.25,7.28000020980835 -7.25,7.008999824523926 C-7.25,7.008999824523926 -7.25,1.6180000305175781 -7.25,1.6180000305175781 C-7.25,1.2389999628067017 -7.035999774932861,0.8930000066757202 -6.697000026702881,0.7239999771118164 C-6.697000026702881,0.7239999771118164 -5.8460001945495605,0.2980000078678131 -5.8460001945495605,0.2980000078678131 C-5.459000110626221,0.10400000214576721 -5.145999908447266,-0.20900000631809235 -4.952000141143799,-0.5960000157356262 C-4.952000141143799,-0.5960000157356262 -3.3559999465942383,-3.7890000343322754 -3.3559999465942383,-3.7890000343322754 C-3.2869999408721924,-3.927999973297119 -3.25,-4.080999851226807 -3.25,-4.236000061035156 C-3.25,-4.236000061035156 -3.25,-8.5 -3.25,-8.5 C-3.25,-8.776000022888184 -3.0260000228881836,-9 -2.75,-9z"></path></g></g></g><g transform="matrix(1,0,0,1,32.62408447265625,40.030128479003906)" opacity="0.12488000001386013" style="display: none;"><g opacity="1" transform="matrix(1,0,0,1,0,0)"><path stroke-linecap="butt" stroke-linejoin="miter" fill-opacity="0" stroke-miterlimit="4" stroke="rgb(255,255,255)" stroke-opacity="1" stroke-width="2" d=" M-2.75,-9 C-2.75,-9 -1.4119999408721924,-9 -1.4119999408721924,-9 C-0.12099999934434891,-9 1.034999966621399,-8.175000190734863 1.3309999704360962,-6.918000221252441 C1.5509999990463257,-5.982999801635742 1.75,-4.892000198364258 1.75,-4 C1.75,-3.305000066757202 1.628999948501587,-2.6110000610351562 1.472000002861023,-2 C1.472000002861023,-2 4.25,-2 4.25,-2 C5.63100004196167,-2 6.75,-0.8809999823570251 6.75,0.5 C6.75,0.652999997138977 6.736000061035156,0.8029999732971191 6.710000038146973,0.9480000138282776 C7.047999858856201,1.3739999532699585 7.25,1.9140000343322754 7.25,2.5 C7.25,3.0859999656677246 7.047999858856201,3.625999927520752 6.710000038146973,4.052000045776367 C6.736000061035156,4.197000026702881 6.75,4.3470001220703125 6.75,4.5 C6.75,5.317999839782715 6.35699987411499,6.044000148773193 5.75,6.5 C5.75,7.88100004196167 4.63100004196167,9 3.25,9 C3.25,9 -0.34599998593330383,9 -0.34599998593330383,9 C-1.6019999980926514,9 -2.8450000286102295,8.744999885559082 -4,8.25 C-4,8.25 -4.822999954223633,7.896999835968018 -4.822999954223633,7.896999835968018 C-5.434999942779541,7.635000228881836 -6.093999862670898,7.5 -6.758999824523926,7.5 C-7.03000020980835,7.5 -7.25,7.28000020980835 -7.25,7.008999824523926 C-7.25,7.008999824523926 -7.25,1.6180000305175781 -7.25,1.6180000305175781 C-7.25,1.2389999628067017 -7.035999774932861,0.8930000066757202 -6.697000026702881,0.7239999771118164 C-6.697000026702881,0.7239999771118164 -5.8460001945495605,0.2980000078678131 -5.8460001945495605,0.2980000078678131 C-5.459000110626221,0.10400000214576721 -5.145999908447266,-0.20900000631809235 -4.952000141143799,-0.5960000157356262 C-4.952000141143799,-0.5960000157356262 -3.3559999465942383,-3.7890000343322754 -3.3559999465942383,-3.7890000343322754 C-3.2869999408721924,-3.927999973297119 -3.25,-4.080999851226807 -3.25,-4.236000061035156 C-3.25,-4.236000061035156 -3.25,-8.5 -3.25,-8.5 C-3.25,-8.776000022888184 -3.0260000228881836,-9 -2.75,-9z"></path></g></g><g mask="url(#__lottie_element_2508_2)" style="display: none;"><g><g><path stroke-linecap="butt" stroke-linejoin="miter" fill-opacity="0" stroke-miterlimit="4"></path></g></g></g><g style="display: none;"><g><path stroke-linecap="butt" stroke-linejoin="miter" fill-opacity="0" stroke-miterlimit="4"></path></g></g><g mask="url(#__lottie_element_2498_2)" style="display: block;"><g transform="matrix(1,0,0,1,39.308998107910156,33.82899856567383)" opacity="1"><g opacity="1" transform="matrix(1,0,0,1,0,0)"><path fill="rgb(255,255,255)" fill-opacity="1" d=" M1.312999963760376,-6.495999813079834 C1.312999963760376,-6.495999813079834 1.3919999599456787,-5.868000030517578 1.3919999599456787,-5.868000030517578 C1.4639999866485596,-5.291999816894531 1.4509999752044678,-4.709000110626221 1.3559999465942383,-4.13700008392334 C1.3559999465942383,-4.13700008392334 1,-2 1,-2 C1,-2 5.5,-2 5.5,-2 C6.328000068664551,-2 7,-1.3279999494552612 7,-0.5 C7,0.02199999988079071 6.732999801635742,0.48100000619888306 6.328999996185303,0.75 C6.328999996185303,0.75 6.5,0.75 6.5,0.75 C7.328000068664551,0.75 8,1.4220000505447388 8,2.25 C8,2.9800000190734863 7.478000164031982,3.5889999866485596 6.7870001792907715,3.7230000495910645 C7.215000152587891,3.986999988555908 7.5,4.460000038146973 7.5,5 C7.5,5.828000068664551 6.828000068664551,6.5 6,6.5 C6,6.5 5.618000030517578,6.5 5.618000030517578,6.5 C5.855999946594238,6.764999866485596 6,7.116000175476074 6,7.5 C6,8.32800006866455 5.328000068664551,9 4.5,9 C4.5,9 0.01600000075995922,9 0.01600000075995922,9 C-1.3049999475479126,9 -2.6029999256134033,8.654999732971191 -3.75,8 C-3.75,8 -3.9230000972747803,7.901000022888184 -3.9230000972747803,7.901000022888184 C-4.955999851226807,7.310999870300293 -6.125999927520752,7 -7.315999984741211,7 C-7.693999767303467,7 -8,6.693999767303467 -8,6.315999984741211 C-8,6.315999984741211 -8,0.7540000081062317 -8,0.7540000081062317 C-8,0.30799999833106995 -7.703999996185303,-0.08399999886751175 -7.275000095367432,-0.2070000022649765 C-7.275000095367432,-0.2070000022649765 -5.238999843597412,-0.7889999747276306 -5.238999843597412,-0.7889999747276306 C-4.763000011444092,-0.925000011920929 -4.355000019073486,-1.2319999933242798 -4.0929999351501465,-1.6519999504089355 C-4.0929999351501465,-1.6519999504089355 -2.1519999504089355,-4.756999969482422 -2.1519999504089355,-4.756999969482422 C-2.052999973297119,-4.915999889373779 -2,-5.099999904632568 -2,-5.2870001792907715 C-2,-5.2870001792907715 -2,-8.52400016784668 -2,-8.52400016784668 C-2,-8.786999702453613 -1.7869999408721924,-9 -1.5240000486373901,-9 C-0.0820000022649765,-9 1.1339999437332153,-7.927000045776367 1.312999963760376,-6.495999813079834z"></path></g></g></g><g transform="matrix(1,0,0,1,31.48900032043457,37.26300048828125)" opacity="1" style="display: block;"><g opacity="1" transform="matrix(1,0,0,1,0,0)"><path fill="rgb(255,255,255)" fill-opacity="1" d=" M1.312999963760376,-6.495999813079834 C1.312999963760376,-6.495999813079834 1.3919999599456787,-5.868000030517578 1.3919999599456787,-5.868000030517578 C1.4639999866485596,-5.291999816894531 1.4509999752044678,-4.709000110626221 1.3559999465942383,-4.13700008392334 C1.3559999465942383,-4.13700008392334 1,-2 1,-2 C1,-2 5.5,-2 5.5,-2 C6.328000068664551,-2 7,-1.3279999494552612 7,-0.5 C7,0.02199999988079071 6.732999801635742,0.48100000619888306 6.328999996185303,0.75 C6.328999996185303,0.75 6.5,0.75 6.5,0.75 C7.328000068664551,0.75 8,1.4220000505447388 8,2.25 C8,2.9800000190734863 7.478000164031982,3.5889999866485596 6.7870001792907715,3.7230000495910645 C7.215000152587891,3.986999988555908 7.5,4.460000038146973 7.5,5 C7.5,5.828000068664551 6.828000068664551,6.5 6,6.5 C6,6.5 5.618000030517578,6.5 5.618000030517578,6.5 C5.855999946594238,6.764999866485596 6,7.116000175476074 6,7.5 C6,8.32800006866455 5.328000068664551,9 4.5,9 C4.5,9 0.01600000075995922,9 0.01600000075995922,9 C-1.3049999475479126,9 -2.6029999256134033,8.654999732971191 -3.75,8 C-3.75,8 -3.9230000972747803,7.901000022888184 -3.9230000972747803,7.901000022888184 C-4.955999851226807,7.310999870300293 -6.125999927520752,7 -7.315999984741211,7 C-7.693999767303467,7 -8,6.693999767303467 -8,6.315999984741211 C-8,6.315999984741211 -8,0.7540000081062317 -8,0.7540000081062317 C-8,0.30799999833106995 -7.703999996185303,-0.08399999886751175 -7.275000095367432,-0.2070000022649765 C-7.275000095367432,-0.2070000022649765 -5.238999843597412,-0.7889999747276306 -5.238999843597412,-0.7889999747276306 C-4.763000011444092,-0.925000011920929 -4.355000019073486,-1.2319999933242798 -4.0929999351501465,-1.6519999504089355 C-4.0929999351501465,-1.6519999504089355 -2.1519999504089355,-4.756999969482422 -2.1519999504089355,-4.756999969482422 C-2.052999973297119,-4.915999889373779 -2,-5.099999904632568 -2,-5.2870001792907715 C-2,-5.2870001792907715 -2,-8.52400016784668 -2,-8.52400016784668 C-2,-8.786999702453613 -1.7869999408721924,-9 -1.5240000486373901,-9 C-0.0820000022649765,-9 1.1339999437332153,-7.927000045776367 1.312999963760376,-6.495999813079834z"></path></g></g><g clip-path="url(#__lottie_element_2474)" transform="matrix(0.15610000491142273,0,0,0.15610000491142273,3.249500274658203,-0.7504997253417969)" opacity="1" style="display: block;"><g transform="matrix(-0.8406781554222107,-0.1254938691854477,0.1254938691854477,-0.8406781554222107,377.88787841796875,163.5336456298828)" opacity="0.00026809919576294307" style="display: none;"><g opacity="1" transform="matrix(1,0,0,1,0,0)"><path fill="rgb(255,255,255)" fill-opacity="0.9" d=" M2.0166871915906076e-15,-32.935001373291016 C2.0166871915906076e-15,-32.935001373291016 8.895402908325195,-8.895402908325195 8.895402908325195,-8.895402908325195 C8.895402908325195,-8.895402908325195 32.935001373291016,0 32.935001373291016,0 C32.935001373291016,0 8.895402908325195,8.895402908325195 8.895402908325195,8.895402908325195 C8.895402908325195,8.895402908325195 2.0166871915906076e-15,32.935001373291016 2.0166871915906076e-15,32.935001373291016 C2.0166871915906076e-15,32.935001373291016 -8.895402908325195,8.895402908325195 -8.895402908325195,8.895402908325195 C-8.895402908325195,8.895402908325195 -32.935001373291016,4.033374383181215e-15 -32.935001373291016,4.033374383181215e-15 C-32.935001373291016,4.033374383181215e-15 -8.895402908325195,-8.895402908325195 -8.895402908325195,-8.895402908325195 C-8.895402908325195,-8.895402908325195 2.0166871915906076e-15,-32.935001373291016 2.0166871915906076e-15,-32.935001373291016z"></path></g></g><g transform="matrix(0.8499932289123535,0,0,0.8499932289123535,375.8108825683594,237.74526977539062)" opacity="0.00006071606238393201" style="display: none;"><g opacity="1" transform="matrix(1,0,0,1,0,0)"><path fill="rgb(255,255,255)" fill-opacity="0.9" d=" M0,-19.76099967956543 C10.906095504760742,-19.76099967956543 19.76099967956543,-10.906095504760742 19.76099967956543,0 C19.76099967956543,10.906095504760742 10.906095504760742,19.76099967956543 0,19.76099967956543 C-10.906095504760742,19.76099967956543 -19.76099967956543,10.906095504760742 -19.76099967956543,0 C-19.76099967956543,-10.906095504760742 -10.906095504760742,-19.76099967956543 0,-19.76099967956543z"></path></g></g><g transform="matrix(0.8499932289123535,0,0,0.8499932289123535,66.89921569824219,176.99002075195312)" opacity="0.00006071606238393201" style="display: none;"><g opacity="1" transform="matrix(1,0,0,1,0,0)"><path fill="rgb(255,255,255)" fill-opacity="0.9" d=" M0,-13.173999786376953 C7.270730495452881,-13.173999786376953 13.173999786376953,-7.270730495452881 13.173999786376953,0 C13.173999786376953,7.270730495452881 7.270730495452881,13.173999786376953 0,13.173999786376953 C-7.270730495452881,13.173999786376953 -13.173999786376953,7.270730495452881 -13.173999786376953,0 C-13.173999786376953,-7.270730495452881 -7.270730495452881,-13.173999786376953 0,-13.173999786376953z"></path></g></g><g transform="matrix(0.8499932289123535,0,0,0.8499932289123535,349.2978820800781,254.0231170654297)" opacity="0.009927351235603794" style="display: none;"><g opacity="1" transform="matrix(1,0,0,1,0,0)"><path fill="rgb(255,255,255)" fill-opacity="0.9" d=" M0,-13.173999786376953 C7.270730495452881,-13.173999786376953 13.173999786376953,-7.270730495452881 13.173999786376953,0 C13.173999786376953,7.270730495452881 7.270730495452881,13.173999786376953 0,13.173999786376953 C-7.270730495452881,13.173999786376953 -13.173999786376953,7.270730495452881 -13.173999786376953,0 C-13.173999786376953,-7.270730495452881 -7.270730495452881,-13.173999786376953 0,-13.173999786376953z"></path></g></g><g transform="matrix(0.8499932289123535,0,0,0.8499932289123535,322.79327392578125,87.97621154785156)" opacity="0.00006071606238393201" style="display: none;"><g opacity="1" transform="matrix(1,0,0,1,0,0)"><path fill="rgb(255,255,255)" fill-opacity="0.9" d=" M0,-19.76099967956543 C10.906095504760742,-19.76099967956543 19.76099967956543,-10.906095504760742 19.76099967956543,0 C19.76099967956543,10.906095504760742 10.906095504760742,19.76099967956543 0,19.76099967956543 C-10.906095504760742,19.76099967956543 -19.76099967956543,10.906095504760742 -19.76099967956543,0 C-19.76099967956543,-10.906095504760742 -10.906095504760742,-19.76099967956543 0,-19.76099967956543z"></path></g></g><g transform="matrix(0.3947930932044983,-0.7527457475662231,0.7527457475662231,0.3947930932044983,125.60826110839844,79.88015747070312)" opacity="0.00006772515970425274" style="display: none;"><g opacity="1" transform="matrix(1,0,0,1,0,0)"><path fill="rgb(255,255,255)" fill-opacity="0.9" d=" M2.0166871915906076e-15,-32.935001373291016 C2.0166871915906076e-15,-32.935001373291016 8.895402908325195,-8.895402908325195 8.895402908325195,-8.895402908325195 C8.895402908325195,-8.895402908325195 32.935001373291016,0 32.935001373291016,0 C32.935001373291016,0 8.895402908325195,8.895402908325195 8.895402908325195,8.895402908325195 C8.895402908325195,8.895402908325195 2.0166871915906076e-15,32.935001373291016 2.0166871915906076e-15,32.935001373291016 C2.0166871915906076e-15,32.935001373291016 -8.895402908325195,8.895402908325195 -8.895402908325195,8.895402908325195 C-8.895402908325195,8.895402908325195 -32.935001373291016,4.033374383181215e-15 -32.935001373291016,4.033374383181215e-15 C-32.935001373291016,4.033374383181215e-15 -8.895402908325195,-8.895402908325195 -8.895402908325195,-8.895402908325195 C-8.895402908325195,-8.895402908325195 2.0166871915906076e-15,-32.935001373291016 2.0166871915906076e-15,-32.935001373291016z"></path></g></g></g></g></svg>